<?xml version="1.0" encoding="utf-8"?>
<!-- Generator: Adobe Illustrator 20.1.0, SVG Export Plug-In . SVG Version: 6.00 Build 0)  -->
<svg version="1.1" id="Layer_1" xmlns="http://www.w3.org/2000/svg" xmlns:xlink="http://www.w3.org/1999/xlink" x="0px" y="0px"
	 viewBox="0 0 48 48" style="enable-background:new 0 0 48 48;" xml:space="preserve">
<style type="text/css">
	.st0{fill:#E24C17;}
	.st1{fill:none;}
</style>
<g>
	<circle class="st0" cx="24" cy="24" r="18"/>
	<path d="M24,44C13,44,4,35,4,24C4,13,13,4,24,4c11,0,20,9,20,20C44,35,35,44,24,44z M24,8C15.2,8,8,15.2,8,24s7.2,16,16,16
		s16-7.2,16-16S32.8,8,24,8z"/>
</g>
<path class="st1" d="M0,0h48v48H0V0z"/>
<circle cx="17.8" cy="19.9" r="2.8"/>
<circle cx="30.2" cy="19.9" r="2.8"/>
<g>
	<path d="M30.7,32.3c-0.2,0-0.5-0.1-0.7-0.2c-6.7-3.6-11.5-0.3-11.7-0.1c-0.7,0.5-1.6,0.3-2.1-0.3c-0.5-0.7-0.3-1.6,0.3-2.1
		c0.3-0.2,6.5-4.6,14.9-0.1c0.7,0.4,1,1.3,0.6,2C31.8,32,31.2,32.3,30.7,32.3z"/>
</g>
</svg>
