<?xml version="1.0" encoding="utf-8"?>
<!-- Generator: Adobe Illustrator 20.1.0, SVG Export Plug-In . SVG Version: 6.00 Build 0)  -->
<svg version="1.1" id="Layer_1" xmlns="http://www.w3.org/2000/svg" xmlns:xlink="http://www.w3.org/1999/xlink" x="0px" y="0px"
	 viewBox="0 0 48 48" style="enable-background:new 0 0 48 48;" xml:space="preserve">
<style type="text/css">
	.st0{fill:#E50B2F;}
	.st1{fill:none;}
</style>
<g>
	<circle class="st0" cx="24" cy="24" r="18"/>
	<path d="M24,44C13,44,4,35,4,24C4,13,13,4,24,4c11,0,20,9,20,20C44,35,35,44,24,44z M24,8C15.2,8,8,15.2,8,24c0,8.8,7.2,16,16,16
		c8.8,0,16-7.2,16-16C40,15.2,32.8,8,24,8z"/>
</g>
<path class="st1" d="M0,0h48v48H0V0z"/>
<circle cx="17.8" cy="19.9" r="2.8"/>
<circle cx="30.2" cy="19.9" r="2.8"/>
<g>
	<path d="M16.4,33.8c-0.4,0-0.8-0.2-1.1-0.5c-0.6-0.6-0.5-1.6,0.1-2.1c7.1-6.6,14.5-2.9,17.4,0c0.6,0.6,0.6,1.5,0,2.1
		c-0.6,0.6-1.5,0.6-2.1,0c-0.3-0.3-6.5-6.3-13.2,0C17.1,33.7,16.8,33.8,16.4,33.8z"/>
</g>
</svg>
