<svg xmlns="http://www.w3.org/2000/svg" xmlns:xlink="http://www.w3.org/1999/xlink" id="Layer_1" x="0" y="0" version="1.1" viewBox="0 0 48 48" style="enable-background:new 0 0 48 48" xml:space="preserve"><style type="text/css">.st0{fill:#9bc31e}.st1{fill:none}</style><g><circle cx="24" cy="24" r="18" class="st0"/><path d="M24,44C13,44,4,35,4,24C4,13,13,4,24,4c11,0,20,9,20,20C44,35,35,44,24,44z M24,8C15.2,8,8,15.2,8,24s7.2,16,16,16 s16-7.2,16-16S32.8,8,24,8z"/></g><path d="M0,0h48v48H0V0z" class="st1"/><circle cx="17.8" cy="19.9" r="2.8"/><circle cx="30.2" cy="19.9" r="2.8"/><g><path d="M24.2,33.8c-3.9,0-7.1-2-8.8-3.7c-0.6-0.6-0.6-1.5,0-2.1c0.6-0.6,1.5-0.6,2.1,0c0.3,0.3,6.5,6.3,13.2,0 c0.6-0.6,1.6-0.5,2.1,0.1c0.6,0.6,0.5,1.6-0.1,2.1C29.8,32.8,26.9,33.8,24.2,33.8z"/></g></svg>